<?xml version="1.0" standalone="no"?>
<!DOCTYPE svg PUBLIC "-//W3C//DTD SVG 20010904//EN"
 "http://www.w3.org/TR/2001/REC-SVG-20010904/DTD/svg10.dtd">
<svg version="1.0" xmlns="http://www.w3.org/2000/svg"
 width="3072.000000pt" height="3072.000000pt" viewBox="0 0 3072.000000 3072.000000"
 preserveAspectRatio="xMidYMid meet">
<metadata>
Created by potrace 1.14, written by Peter Selinger 2001-2017
</metadata>
<g transform="translate(0.000000,3072.000000) scale(0.100000,-0.100000)"
fill="#000000" stroke="none">
<path d="M0 15360 l0 -15360 15360 0 15360 0 0 15360 0 15360 -15360 0 -15360
0 0 -15360z m21030 10850 c920 -57 1602 -320 2085 -805 188 -188 320 -374 450
-630 214 -420 332 -913 365 -1521 8 -141 10 -1946 8 -6169 -3 -5642 -5 -5976
-21 -6085 -58 -378 -141 -592 -324 -835 -188 -251 -303 -383 -553 -640 -187
-191 -235 -247 -341 -390 -425 -573 -564 -1294 -363 -1876 74 -218 198 -424
342 -572 77 -79 231 -195 334 -250 86 -47 133 -67 302 -132 283 -108 520 -366
598 -651 31 -113 31 -344 0 -459 -76 -281 -300 -529 -574 -635 -169 -65 426
-61 -6983 -57 -6323 2 -6739 4 -6880 20 -612 71 -1036 200 -1420 430 -779 467
-1193 1282 -1265 2492 -14 237 -14 15608 0 15835 70 1121 423 1889 1095 2377
453 329 1077 517 1845 556 171 9 11155 6 11300 -3z"/>
<path d="M9704 24555 c-222 -48 -413 -219 -487 -435 l-22 -65 -3 -6303 c-2
-5543 0 -6312 13 -6375 45 -218 222 -411 440 -480 100 -32 290 -32 390 0 161
51 313 180 384 325 23 46 48 115 56 153 22 106 22 12584 0 12690 -41 193 -206
386 -394 460 -114 44 -258 56 -377 30z"/>
<path d="M12985 21083 c-373 -79 -637 -428 -611 -808 7 -114 25 -179 75 -280
95 -190 265 -336 476 -407 l70 -23 3903 -3 c4321 -2 3971 -8 4121 63 225 107
385 297 442 525 20 79 17 287 -5 370 -67 252 -272 465 -531 552 l-70 23 -3900
2 c-3429 1 -3908 0 -3970 -14z"/>
<path d="M13058 18169 c-228 -24 -451 -173 -584 -391 -134 -219 -135 -534 -3
-765 94 -164 265 -302 454 -365 l70 -23 3060 -3 c2768 -2 3068 -1 3139 13 294
59 529 294 591 590 19 89 19 260 0 347 -20 96 -82 220 -153 310 -104 131 -227
215 -387 265 l-90 28 -3010 1 c-1655 1 -3045 -2 -3087 -7z"/>
<path d="M9943 9214 c-679 -82 -1156 -492 -1280 -1101 -14 -71 -18 -136 -18
-333 0 -215 3 -259 23 -358 116 -577 460 -918 1042 -1034 l115 -23 5427 -3
5427 -2 -39 89 c-200 461 -291 938 -277 1459 10 404 75 748 215 1147 27 77 53
148 57 158 7 16 -249 17 -5286 16 -4402 -1 -5313 -3 -5406 -15z"/>
</g>
</svg>
